<?xml version="1.0" encoding="UTF-8" standalone="no"?>
<svg
   xmlns:dc="http://purl.org/dc/elements/1.1/"
   xmlns:cc="http://creativecommons.org/ns#"
   xmlns:rdf="http://www.w3.org/1999/02/22-rdf-syntax-ns#"
   xmlns:svg="http://www.w3.org/2000/svg"
   xmlns="http://www.w3.org/2000/svg"
   xmlns:sodipodi="http://sodipodi.sourceforge.net/DTD/sodipodi-0.dtd"
   xmlns:inkscape="http://www.inkscape.org/namespaces/inkscape"
   aria-hidden="true"
   focusable="false"
   data-prefix="fas"
   data-icon="info-circle"
   class="svg-inline--fa fa-info-circle fa-w-16"
   role="img"
   viewBox="0 0 512 512"
   version="1.1"
   id="svg210"
   sodipodi:docname="info-circle-solid.svg"
   inkscape:version="1.0.1 (3bc2e813f5, 2020-09-07)">
  <metadata
     id="metadata216">
    <rdf:RDF>
      <cc:Work
         rdf:about="">
        <dc:format>image/svg+xml</dc:format>
        <dc:type
           rdf:resource="http://purl.org/dc/dcmitype/StillImage" />
      </cc:Work>
    </rdf:RDF>
  </metadata>
  <defs
     id="defs214" />
  <sodipodi:namedview
     pagecolor="#ffffff"
     bordercolor="#666666"
     borderopacity="1"
     objecttolerance="10"
     gridtolerance="10"
     guidetolerance="10"
     inkscape:pageopacity="0"
     inkscape:pageshadow="2"
     inkscape:window-width="1758"
     inkscape:window-height="934"
     id="namedview212"
     showgrid="false"
     inkscape:zoom="1.5625"
     inkscape:cx="256"
     inkscape:cy="253.12"
     inkscape:window-x="0"
     inkscape:window-y="0"
     inkscape:window-maximized="0"
     inkscape:current-layer="svg210" />
  <path
     fill="currentColor"
     d="M256 8C119.043 8 8 119.083 8 256c0 136.997 111.043 248 248 248s248-111.003 248-248C504 119.083 392.957 8 256 8zm0 110c23.196 0 42 18.804 42 42s-18.804 42-42 42-42-18.804-42-42 18.804-42 42-42zm56 254c0 6.627-5.373 12-12 12h-88c-6.627 0-12-5.373-12-12v-24c0-6.627 5.373-12 12-12h12v-64h-12c-6.627 0-12-5.373-12-12v-24c0-6.627 5.373-12 12-12h64c6.627 0 12 5.373 12 12v100h12c6.627 0 12 5.373 12 12v24z"
     id="path208" />
  <path
     style="fill:#0000ff;stroke-width:0.64"
     d="m 207.33352,382.47702 c -3.49943,-1.58958 -5.79865,-4.50318 -6.63648,-8.40984 -0.90264,-4.20889 -0.90264,-23.92547 0,-28.13436 0.83783,-3.90666 3.13705,-6.82026 6.63648,-8.40984 2.01062,-0.91329 4.18951,-1.178 9.78648,-1.18893 l 7.2,-0.014 V 304 271.68 l -7.2,-0.0141 C 208.96107,271.65 205.9325,270.71094 203.07056,267.30971 200.66633,264.45248 200,260.26218 200,248 c 0,-12.6161 0.65999,-16.5293 3.29368,-19.52891 3.72673,-4.24452 3.39612,-4.21284 41.87365,-4.01186 l 34.60734,0.18077 2.59513,1.71777 c 1.56278,1.03444 3.13516,2.83332 3.95266,4.52206 1.34878,2.78621 1.35754,3.13534 1.35754,54.12223 V 336.32 l 7.2,0.0141 c 5.59697,0.0109 7.77586,0.27564 9.78648,1.18893 3.49943,1.58957 5.79865,4.50317 6.63648,8.40983 0.90265,4.20889 0.90265,23.92548 0,28.13437 -0.83783,3.90666 -3.13705,6.82026 -6.63648,8.40983 -2.43266,1.105 -5.32685,1.17488 -48.66648,1.17488 -43.33963,0 -46.23382,-0.0699 -48.66648,-1.17488 z"
     id="path218" />
  <path
     style="fill:#0000ff;stroke-width:0.64"
     d="m 250.26287,201.23196 c -9.54566,-1.4509 -16.13626,-4.85446 -23.43111,-12.10047 -8.49551,-8.43863 -12.30734,-17.46123 -12.30734,-29.13149 0,-11.70081 3.8072,-20.72498 12.30931,-29.17663 8.56914,-8.51829 17.53476,-12.29895 29.16627,-12.29895 11.70081,0 20.72498,3.8072 29.17663,12.30931 8.51829,8.56914 12.29895,17.53476 12.29895,29.16627 0,11.63151 -3.78066,20.59713 -12.29895,29.16627 -4.23906,4.26437 -6.59482,6.06081 -10.29663,7.85196 -8.01952,3.88032 -16.85761,5.39314 -24.61713,4.21373 z"
     id="path220" />
  <path
     style="fill:#ffffff;fill-opacity:1;stroke-width:0.64"
     d="M 248.96,503.53506 C 210.96355,502.57894 170.57072,491.69677 137.87059,473.60664 66.959117,434.37748 20.427964,366.2465 10.233338,286.72 8.0258993,269.50016 8.0240429,242.41383 10.229127,225.28 25.656977,105.40333 124.92356,13.763938 244.8,8.7325037 299.24577,6.4473148 349.89858,20.721079 394.56,50.934287 456.34275,92.729978 496.05993,160.00704 502.70799,234.12651 c 0.87333,9.73669 0.87333,34.01029 0,43.74698 C 493.15504,384.37965 416.06025,473.04244 312,497.19702 c -20.22645,4.69499 -41.86774,6.8708 -63.04,6.33804 z M 306.75444,382.23928 C 311.67896,378.97997 312,377.61887 312,360 c 0,-13.85967 -0.12199,-15.65002 -1.2119,-17.7855 -2.64345,-5.17938 -5.83865,-6.5345 -15.40754,-6.5345 H 288.32 l -0.0141,-51.04 c -0.0133,-48.25386 -0.0786,-51.17974 -1.19557,-53.6 -1.42993,-3.09823 -3.45602,-5.04806 -6.61855,-6.36945 -2.04159,-0.85303 -7.14936,-0.9886 -36.79127,-0.9765 -38.7227,0.0158 -37.78094,-0.0936 -41.53485,4.82495 l -1.84571,2.41831 -0.19058,16.17689 c -0.18021,15.29636 -0.11856,16.31808 1.13265,18.77063 0.73301,1.43683 2.50858,3.37909 3.98074,4.35445 2.47819,1.6419 3.18994,1.77504 10.54736,1.97292 l 7.88986,0.21219 V 304.0522 335.68 l -7.2,0.0141 c -8.44696,0.0165 -11.40552,1.01373 -14.3143,4.82494 l -1.8457,2.41832 -0.19059,16.17689 c -0.17896,15.19088 -0.11158,16.33174 1.10551,18.71744 1.2919,2.53232 3.67744,4.6522 6.53798,5.8099 0.9181,0.37157 20.03474,0.5608 48.91418,0.4842 l 47.40708,-0.12574 2.66028,-1.76072 z m -45.5253,-180.31511 c 23.19214,-3.01354 39.6116,-24.00774 36.70511,-46.93179 -3.45595,-27.25774 -30.34516,-43.79675 -56.44701,-34.71942 -18.03226,6.271 -30.08242,25.90438 -27.46206,44.74406 2.97295,21.37475 19.55761,36.39753 41.33482,37.44206 0.704,0.0338 3.34511,-0.20694 5.86914,-0.53491 z"
     id="path234" />
</svg>
